<svg width="25" height="25" viewBox="0 0 25 25"  xmlns="http://www.w3.org/2000/svg">
<path d="M8.63242 0H2.89102C1.29692 0 0 1.29692 0 2.89102V8.63242C0 10.2265 1.29692 11.5234 2.89102 11.5234H8.63242C10.2265 11.5234 11.5234 10.2265 11.5234 8.63242V2.89102C11.5234 1.29692 10.2265 0 8.63242 0ZM9.57031 8.63242C9.57031 9.14956 9.14956 9.57031 8.63242 9.57031H2.89102C2.37388 9.57031 1.95312 9.14956 1.95312 8.63242V2.89102C1.95312 2.37388 2.37388 1.95312 2.89102 1.95312H8.63242C9.14956 1.95312 9.57031 2.37388 9.57031 2.89102V8.63242Z" fill="#222222"/>
<path d="M22.0703 0H16.4062C14.7908 0 13.4766 1.31426 13.4766 2.92969V8.59375C13.4766 10.2092 14.7908 11.5234 16.4062 11.5234H22.0703C23.6857 11.5234 25 10.2092 25 8.59375V2.92969C25 1.31426 23.6857 0 22.0703 0ZM23.0469 8.59375C23.0469 9.13223 22.6088 9.57031 22.0703 9.57031H16.4062C15.8678 9.57031 15.4297 9.13223 15.4297 8.59375V2.92969C15.4297 2.39121 15.8678 1.95312 16.4062 1.95312H22.0703C22.6088 1.95312 23.0469 2.39121 23.0469 2.92969V8.59375Z" fill="#222222"/>
<path d="M8.63242 13.4766H2.89102C1.29692 13.4766 0 14.7735 0 16.3676V22.109C0 23.7031 1.29692 25 2.89102 25H8.63242C10.2265 25 11.5234 23.7031 11.5234 22.109V16.3676C11.5234 14.7735 10.2265 13.4766 8.63242 13.4766ZM9.57031 22.109C9.57031 22.6261 9.14956 23.0469 8.63242 23.0469H2.89102C2.37388 23.0469 1.95312 22.6261 1.95312 22.109V16.3676C1.95312 15.8504 2.37388 15.4297 2.89102 15.4297H8.63242C9.14956 15.4297 9.57031 15.8504 9.57031 16.3676V22.109Z" fill="#222222"/>
<path d="M22.0703 13.4766H16.4062C14.7908 13.4766 13.4766 14.7908 13.4766 16.4062V22.0703C13.4766 23.6857 14.7908 25 16.4062 25H22.0703C23.6857 25 25 23.6857 25 22.0703V16.4062C25 14.7908 23.6857 13.4766 22.0703 13.4766ZM23.0469 22.0703C23.0469 22.6088 22.6088 23.0469 22.0703 23.0469H16.4062C15.8678 23.0469 15.4297 22.6088 15.4297 22.0703V16.4062C15.4297 15.8678 15.8678 15.4297 16.4062 15.4297H22.0703C22.6088 15.4297 23.0469 15.8678 23.0469 16.4062V22.0703Z" fill="#222222"/>
</svg>
