<svg width="23" height="23" viewBox="0 0 23 23"  xmlns="http://www.w3.org/2000/svg">
<path d="M16.7922 14.1934C16.4337 14.7714 16.0422 15.374 15.6181 16.0006C19.185 16.534 21.0113 17.6765 21.0113 18.245C21.0113 19.002 17.7753 20.7762 11.4997 20.7762C5.22474 20.7762 1.98873 19.002 1.98873 18.245C1.98873 17.6765 3.81453 16.5345 7.38242 16.0006C6.9578 15.374 6.56677 14.7714 6.20783 14.1934C2.68757 14.8571 0 16.2217 0 18.245C0 21.2128 5.78572 22.7659 11.4997 22.7659C17.2148 22.7659 23 21.2128 23 18.245C23.0005 16.2217 20.3134 14.8571 16.7922 14.1934Z" fill="#222222"/>
<path d="M11.5258 0.234619C7.79701 0.234619 4.77456 3.25707 4.77456 6.98487C4.77456 9.65941 8.24719 14.7764 10.2114 17.4564C10.5187 17.8755 11.0065 18.1232 11.5258 18.1232C12.0442 18.1232 12.5335 17.8755 12.8393 17.4564C14.8034 14.7764 18.2766 9.65941 18.2766 6.98487C18.2766 3.25707 15.2541 0.234619 11.5258 0.234619ZM11.5258 11.1764C9.32252 11.1764 7.53031 9.38419 7.53031 7.18189C7.53031 4.9791 9.32252 3.18688 11.5258 3.18688C13.7286 3.18688 15.5203 4.9791 15.5203 7.18189C15.5203 9.38419 13.7286 11.1764 11.5258 11.1764Z" fill="#222222"/>
<path d="M11.5258 4.75201C10.1858 4.75201 9.09592 5.84188 9.09592 7.18191C9.09592 8.52093 10.1858 9.6113 11.5258 9.6113C12.8653 9.6113 13.9557 8.52143 13.9557 7.18191C13.9557 5.84138 12.8653 4.75201 11.5258 4.75201Z" fill="#222222"/>
</svg>
